<svg xmlns="http://www.w3.org/2000/svg" width="1500" height="780" viewBox="0 0 1500 780" role="img" aria-labelledby="title desc">
<title id="title">Интерфейс Viking Chronology V4</title><desc id="desc">Desktop и mobile компоновка экспедиционного интерфейса</desc>
<defs><linearGradient id="bg" x1="0" y1="0" x2="1" y2="1"><stop stop-color="#061416"/><stop offset="1" stop-color="#100d0a"/></linearGradient><linearGradient id="gold" x1="0" x2="1"><stop stop-color="#e3c57f"/><stop offset="1" stop-color="#8d6234"/></linearGradient><filter id="shadow"><feDropShadow dx="0" dy="20" stdDeviation="22" flood-opacity=".48"/></filter></defs>
<rect width="1500" height="780" rx="30" fill="url(#bg)"/><text x="60" y="55" fill="#d8c69c" font-family="Georgia" font-size="30">Expedition interface system</text><text x="60" y="82" fill="#70857a" font-family="Arial" font-size="12" letter-spacing="2">DESKTOP COMMAND VIEW · MOBILE SHEET · CINEMATIC VOYAGE CAMERA</text>
<g transform="translate(55 120)" filter="url(#shadow)"><rect width="1030" height="590" rx="24" fill="#071112" stroke="#d2ad62" stroke-opacity=".24"/><rect x="15" y="15" width="1000" height="54" rx="13" fill="#0a1716" stroke="#d2ad62" stroke-opacity=".18"/><text x="38" y="48" fill="#e6d5ad" font-family="Georgia" font-size="18">Viking Chronology</text><text x="510" y="47" fill="#b69b63" font-family="Arial" font-size="11">793 · ЗАПАДНЫЙ БЕРЕГ · МОРАЛЬ 76</text>
<path d="M0 395L125 280 225 340 350 230 475 335 620 250 760 340 900 260 1030 345V590H0Z" fill="#173130"/><path d="M0 430c210-25 410 35 620 0s270-20 410 16v144H0z" fill="#0d292d"/><path d="M170 396C330 350 495 420 690 370S850 345 980 405" fill="none" stroke="#d1ad61" stroke-width="4" stroke-dasharray="6 9"/>
<g transform="translate(710 350)"><path d="M-105 38q82 42 210-15Q83 77 4 88q-71 7-109-50z" fill="#54301c" stroke="#c18b49" stroke-width="3"/><path d="M0 40V-82" stroke="#604027" stroke-width="6"/><path d="M-55-70H54" stroke="#604027" stroke-width="5"/><path d="M-50-65Q0-88 50-65V28Q0 3-50 27Z" fill="#d3bd83"/><path d="M-25-72V24M0-80V13M26-72V25" stroke="#9d4734" stroke-width="9"/></g>
<g transform="translate(25 88)"><rect width="330" height="445" rx="18" fill="#081310" fill-opacity=".93" stroke="#d3ad62" stroke-opacity=".28"/><text x="22" y="34" fill="#aa8c52" font-family="Arial" font-size="10" letter-spacing="2">ЭКСПЕДИЦИОННЫЙ СОВЕТ</text><text x="22" y="69" fill="#ecd9ad" font-family="Georgia" font-size="25">Западный берег</text><g font-family="Arial" font-size="10"><rect x="20" y="92" width="91" height="66" rx="8" fill="#1b2822" stroke="#c56b4e" stroke-opacity=".5"/><rect x="119" y="92" width="91" height="66" rx="8" fill="#101b18"/><rect x="218" y="92" width="91" height="66" rx="8" fill="#101b18"/><text x="31" y="116" fill="#d8bd82">793–866</text><text x="31" y="140" fill="#91a095">Запад</text><text x="130" y="116" fill="#71967f">860–907</text><text x="130" y="140" fill="#91a095">Реки</text><text x="229" y="116" fill="#d1b36c">874–1021</text><text x="229" y="140" fill="#91a095">Атлантика</text></g><rect x="20" y="178" width="289" height="70" rx="8" fill="#10201c"/><text x="34" y="205" fill="#cfb477" font-family="Arial" font-size="10">ЦЕЛЬ ЭКСПЕДИЦИИ</text><text x="34" y="229" fill="#91a095" font-family="Arial" font-size="11">Достичь английского побережья</text><g font-family="Arial" font-size="10" fill="#9cad9f"><text x="24" y="282">Провизия</text><text x="250" y="282">88 / 64</text><rect x="24" y="291" width="280" height="5" rx="3" fill="#213029"/><rect x="24" y="291" width="246" height="5" rx="3" fill="#91a875"/><text x="24" y="326">Древесина</text><text x="250" y="326">52 / 28</text><rect x="24" y="335" width="280" height="5" rx="3" fill="#213029"/><rect x="24" y="335" width="202" height="5" rx="3" fill="#9f7541"/><text x="24" y="370">Парусина</text><text x="250" y="370">34 / 18</text><rect x="24" y="379" width="280" height="5" rx="3" fill="#213029"/><rect x="24" y="379" width="174" height="5" rx="3" fill="#ba9150"/></g><rect x="20" y="399" width="289" height="43" rx="10" fill="url(#gold)"/><text x="165" y="425" text-anchor="middle" fill="#17120c" font-family="Arial" font-size="11" font-weight="800">ОТДАТЬ ПРИКАЗ К ОТПЛЫТИЮ</text></g>
<rect x="360" y="515" width="640" height="58" rx="14" fill="#081311" fill-opacity=".9" stroke="#d3ad62" stroke-opacity=".18"/><text x="385" y="541" fill="#d5bc83" font-family="Georgia" font-size="20">841</text><rect x="450" y="544" width="510" height="5" rx="3" fill="#26342e"/><rect x="450" y="544" width="278" height="5" rx="3" fill="#d0ad64"/></g>
<g transform="translate(1140 120)" filter="url(#shadow)"><rect width="305" height="590" rx="42" fill="#050a0a" stroke="#d3ad62" stroke-opacity=".35" stroke-width="3"/><rect x="15" y="16" width="275" height="558" rx="31" fill="#081414"/><rect x="28" y="34" width="249" height="47" rx="12" fill="#0c1917"/><text x="48" y="63" fill="#ead8ad" font-family="Georgia" font-size="16">Viking Chronology</text><path d="M15 315l70-75 56 50 71-85 78 80v289H15Z" fill="#173130"/><path d="M15 365q100-25 275 12v197H15Z" fill="#0d292d"/><rect x="27" y="296" width="251" height="246" rx="22" fill="#081310" fill-opacity=".96" stroke="#d3ad62" stroke-opacity=".25"/><text x="48" y="329" fill="#aa8c52" font-family="Arial" font-size="9" letter-spacing="2">ЭКСПЕДИЦИОННЫЙ СОВЕТ</text><text x="48" y="361" fill="#ecd9ad" font-family="Georgia" font-size="23">Западный берег</text><rect x="47" y="385" width="211" height="55" rx="8" fill="#10201c"/><text x="60" y="408" fill="#cfb477" font-family="Arial" font-size="9">ГОТОВНОСТЬ 2/3</text><text x="60" y="427" fill="#91a095" font-family="Arial" font-size="10">ресурсы и совет команды</text><rect x="47" y="459" width="211" height="50" rx="11" fill="url(#gold)"/><text x="152" y="489" text-anchor="middle" fill="#17120c" font-family="Arial" font-size="10" font-weight="800">ВЫЙТИ В МОРЕ</text></g>
<text x="750" y="748" text-anchor="middle" fill="#687970" font-family="Arial" font-size="12" letter-spacing="2">ONE FINGER PAN · TWO FINGER DOLLY/PAN · FIXED CAMERA ANGLE · SAFE AREA</text>
</svg>
