<svg xmlns="http://www.w3.org/2000/svg" width="1440" height="860" viewBox="0 0 1440 860" role="img" aria-labelledby="title desc">
  <title id="title">Viking Chronology interface preview</title><desc id="desc">Product-style preview of the atlas interface on desktop and mobile.</desc>
  <defs><linearGradient id="bg" x1="0" y1="0" x2="1" y2="1"><stop stop-color="#0b0d0d"/><stop offset="1" stop-color="#24170f"/></linearGradient><radialGradient id="globe" cx="42%" cy="34%" r="72%"><stop stop-color="#29413f"/><stop offset="1" stop-color="#0e1918"/></radialGradient><linearGradient id="panel" x1="0" y1="0" x2="0" y2="1"><stop stop-color="#231b14"/><stop offset="1" stop-color="#100d0a"/></linearGradient><filter id="shadow" x="-20%" y="-20%" width="140%" height="160%"><feDropShadow dx="0" dy="24" stdDeviation="28" flood-color="#000" flood-opacity=".6"/></filter><filter id="glow" x="-100%" y="-100%" width="300%" height="300%"><feGaussianBlur stdDeviation="6" result="b"/><feMerge><feMergeNode in="b"/><feMergeNode in="SourceGraphic"/></feMerge></filter></defs>
  <rect width="1440" height="860" rx="34" fill="url(#bg)"/>
  <text x="72" y="70" fill="#d8bf84" font-family="Arial" font-size="13" font-weight="700" letter-spacing="3">PRODUCT EXPERIENCE</text><text x="72" y="116" fill="#f0e5cd" font-family="Georgia" font-size="38">One atlas. Three historical corridors.</text><text x="72" y="150" fill="#827968" font-family="Arial" font-size="16">Designed for deliberate exploration — not passive autoplay.</text>
  <g transform="translate(64 184)" filter="url(#shadow)">
    <rect width="1020" height="610" rx="24" fill="#080807" stroke="#d1ad68" stroke-opacity=".28"/><rect x="20" y="20" width="980" height="60" rx="14" fill="#17120e" stroke="#d1ad68" stroke-opacity=".18"/>
    <text x="46" y="47" fill="#8f7c5a" font-family="Arial" font-size="10" letter-spacing="2.2">HISTORICAL ATLAS · 750–1021 CE</text><text x="46" y="69" fill="#f2e7ce" font-family="Georgia" font-size="23">Пути северных мореходов</text>
    <rect x="808" y="34" width="166" height="34" rx="17" fill="#2a2117" stroke="#c9a45e" stroke-opacity=".45"/><circle cx="831" cy="51" r="4" fill="#d9b96f" filter="url(#glow)"/><text x="846" y="56" fill="#d9c69a" font-family="Arial" font-size="11" font-weight="700" letter-spacing="1">MANUAL CONTROL</text>
    <rect x="20" y="96" width="258" height="428" rx="18" fill="url(#panel)" stroke="#d1ad68" stroke-opacity=".24"/><text x="44" y="130" fill="#d0aa66" font-family="Arial" font-size="10" letter-spacing="2">ROUTE LAYERS</text>
    <g font-family="Arial" font-size="14"><rect x="36" y="150" width="226" height="48" rx="10" fill="#2b2117" stroke="#e2bc72" stroke-opacity=".55"/><circle cx="58" cy="174" r="5" fill="#e0b45f"/><text x="74" y="179" fill="#f0e2c2">All routes</text><rect x="36" y="210" width="226" height="48" rx="10" fill="#17130f" stroke="#d1ad68" stroke-opacity=".18"/><circle cx="58" cy="234" r="5" fill="#e0b45f"/><text x="74" y="239" fill="#bdb093">North Atlantic</text><rect x="36" y="270" width="226" height="48" rx="10" fill="#17130f" stroke="#d1ad68" stroke-opacity=".18"/><circle cx="58" cy="294" r="5" fill="#bb5e49"/><text x="74" y="299" fill="#bdb093">Western Europe</text><rect x="36" y="330" width="226" height="48" rx="10" fill="#17130f" stroke="#d1ad68" stroke-opacity=".18"/><circle cx="58" cy="354" r="5" fill="#7ca287"/><text x="74" y="359" fill="#bdb093">Eastern Rivers</text></g>
    <path d="M44 406h190" stroke="#d1ad68" stroke-opacity=".18"/><text x="44" y="438" fill="#d0aa66" font-family="Arial" font-size="10" letter-spacing="2">SCENE PROFILE</text><text x="44" y="470" fill="#9d927c" font-family="Arial" font-size="13">Balanced GPU profile</text><text x="44" y="495" fill="#9d927c" font-family="Arial" font-size="13">WebGL recovery enabled</text>
    <circle cx="635" cy="310" r="205" fill="url(#globe)" stroke="#caa866" stroke-opacity=".32"/><g fill="none" stroke="#aa966c" stroke-opacity=".13"><ellipse cx="635" cy="310" rx="205" ry="78"/><ellipse cx="635" cy="310" rx="80" ry="205"/><path d="M430 310h410M635 105v410"/></g>
    <path d="M505 352c64-125 171-158 274-82" fill="none" stroke="#e0b45f" stroke-width="5" stroke-linecap="round" filter="url(#glow)"/><path d="M492 304c-86-58-144-37-188 25" fill="none" stroke="#bb5e49" stroke-width="5" stroke-linecap="round" filter="url(#glow)"/><path d="M568 411c73 52 151 57 238 13" fill="none" stroke="#7ca287" stroke-width="5" stroke-linecap="round" filter="url(#glow)"/><g fill="#f2dfaa" stroke="#111" stroke-width="4"><circle cx="505" cy="352" r="8"/><circle cx="779" cy="270" r="8"/><circle cx="304" cy="329" r="8"/><circle cx="806" cy="424" r="8"/></g>
    <rect x="744" y="112" width="236" height="168" rx="16" fill="#16120e" stroke="#d1ad68" stroke-opacity=".35"/><text x="766" y="142" fill="#d0aa66" font-family="Arial" font-size="10" letter-spacing="2">SELECTED LOCATION</text><text x="766" y="176" fill="#f0e3c4" font-family="Georgia" font-size="23">L'Anse aux Meadows</text><text x="766" y="202" fill="#928774" font-family="Arial" font-size="12">Newfoundland · c. 1021</text><path d="M766 222h184" stroke="#d1ad68" stroke-opacity=".18"/><text x="766" y="248" fill="#b4a78e" font-family="Arial" font-size="12">Archaeological evidence · high confidence</text>
    <rect x="298" y="540" width="702" height="50" rx="12" fill="#15110d" stroke="#d1ad68" stroke-opacity=".24"/><text x="320" y="570" fill="#d9b96f" font-family="Georgia" font-size="23">1021</text><text x="382" y="569" fill="#756d5e" font-family="Arial" font-size="10" letter-spacing="1.8">YEAR CE</text><rect x="460" y="562" width="508" height="4" rx="2" fill="#463722"/><rect x="460" y="562" width="454" height="4" rx="2" fill="#d0aa66"/><circle cx="914" cy="564" r="8" fill="#f0d996"/>
  </g>
  <g transform="translate(1124 250)" filter="url(#shadow)"><rect width="252" height="510" rx="38" fill="#0a0908" stroke="#d1ad68" stroke-opacity=".35" stroke-width="2"/><rect x="12" y="12" width="228" height="486" rx="30" fill="#11100e"/><rect x="80" y="23" width="92" height="18" rx="9" fill="#050505"/><circle cx="126" cy="206" r="92" fill="url(#globe)" stroke="#caa866" stroke-opacity=".35"/><path d="M65 224c34-60 85-76 132-38" fill="none" stroke="#e0b45f" stroke-width="4" stroke-linecap="round"/><g fill="#f2dfaa"><circle cx="66" cy="224" r="6"/><circle cx="197" cy="186" r="6"/></g><text x="26" y="70" fill="#8f7c5a" font-family="Arial" font-size="8" letter-spacing="1.5">VIKING CHRONOLOGY</text><text x="26" y="92" fill="#efe1c4" font-family="Georgia" font-size="17">North Atlantic</text><rect x="24" y="320" width="204" height="142" rx="16" fill="#1a1510" stroke="#d1ad68" stroke-opacity=".28"/><text x="42" y="348" fill="#d0aa66" font-family="Arial" font-size="8" letter-spacing="1.7">LOCATION STORY</text><text x="42" y="378" fill="#f0e3c4" font-family="Georgia" font-size="19">Greenland</text><text x="42" y="402" fill="#8c8270" font-family="Arial" font-size="10">Settlement corridor · c. 985</text><rect x="42" y="426" width="168" height="24" rx="12" fill="#2b2117"/><text x="126" y="442" text-anchor="middle" fill="#d7c49b" font-family="Arial" font-size="9" font-weight="700">OPEN EVIDENCE</text></g>
</svg>
